<svg width="32" height="32" viewBox="0 0 32 32" fill="none" xmlns="http://www.w3.org/2000/svg">
<path fill-rule="evenodd" clip-rule="evenodd" d="M16 0C7.16352 0 0 7.16352 0 16C0 24.8366 7.16352 32 16 32C24.8366 32 32 24.8366 32 16C32 7.16352 24.8366 0 16 0ZM13.9314 25.1313L21.9314 17.1313C22.5563 16.5065 22.5563 15.4934 21.9314 14.8686L13.9314 6.86857C13.3066 6.24377 12.2935 6.24377 11.6687 6.86857C11.0439 7.49337 11.0439 8.50649 11.6687 9.13129L18.5373 15.9999L11.6687 22.8686C11.0439 23.4934 11.0439 24.5065 11.6687 25.1313C12.2935 25.7561 13.3066 25.7561 13.9314 25.1313Z" fill="#F5802A"/>
</svg>
